<svg width="154" height="154" viewBox="0 0 154 154" fill="none" xmlns="http://www.w3.org/2000/svg">
<g filter="url(#filter0_d_624_317)">
<rect x="20" y="16" width="114" height="114" rx="20" fill="#F4F1EB"/>
<path d="M77 98.25C71.1757 98.2492 65.517 96.3113 60.9149 92.7415C56.3128 89.1717 53.0286 84.1727 51.5794 78.5316C50.1302 72.8904 50.5983 66.9275 52.91 61.5815C55.2216 56.2356 59.2456 51.8103 64.3483 49.0022C69.451 46.1942 75.3427 45.163 81.0959 46.0709C86.849 46.9789 92.1368 49.7744 96.1268 54.0173C100.117 58.2603 102.582 63.7098 103.135 69.5078C103.688 75.3058 102.297 81.1231 99.1812 86.0438L103.25 98.25L91.0437 94.1813C86.845 96.8461 81.973 98.2576 77 98.25Z" fill="#211A4D" stroke="#211A4D" stroke-width="2" stroke-linecap="round" stroke-linejoin="round"/>
</g>
<defs>
<filter id="filter0_d_624_317" x="0" y="0" width="154" height="154" filterUnits="userSpaceOnUse" color-interpolation-filters="sRGB">
<feFlood flood-opacity="0" result="BackgroundImageFix"/>
<feColorMatrix in="SourceAlpha" type="matrix" values="0 0 0 0 0 0 0 0 0 0 0 0 0 0 0 0 0 0 127 0" result="hardAlpha"/>
<feOffset dy="4"/>
<feGaussianBlur stdDeviation="10"/>
<feComposite in2="hardAlpha" operator="out"/>
<feColorMatrix type="matrix" values="0 0 0 0 0 0 0 0 0 0 0 0 0 0 0 0 0 0 0.2 0"/>
<feBlend mode="normal" in2="BackgroundImageFix" result="effect1_dropShadow_624_317"/>
<feBlend mode="normal" in="SourceGraphic" in2="effect1_dropShadow_624_317" result="shape"/>
</filter>
</defs>
</svg>
