<svg width="17" height="16" viewBox="0 0 17 16" fill="none" xmlns="http://www.w3.org/2000/svg">
<path d="M4.8335 2V4H2.8335V2H4.8335ZM1.8335 1V5H5.8335V1H1.8335ZM9.8335 3.5V5.5H7.8335V3.5H9.8335ZM6.8335 2.5V6.5H10.8335V2.5H6.8335ZM4.8335 8V10H2.8335V8H4.8335ZM1.8335 7V11H5.8335V7H1.8335Z" fill="#C9AE88"/>
<path d="M11.8335 5V8H8.8335V11H5.8335V15H15.8335V5H11.8335ZM9.8335 9H11.8335V11H9.8335V9ZM8.8335 14H6.8335V12H8.8335V14ZM11.8335 14H9.8335V12H11.8335V14ZM14.8335 14H12.8335V12H14.8335V14ZM14.8335 11H12.8335V9H14.8335V11ZM12.8335 8V6H14.8335V8H12.8335Z" fill="#C9AE88"/>
</svg>
