<svg width="48" height="48" viewBox="0 0 48 48" fill="none" xmlns="http://www.w3.org/2000/svg">
<path d="M0 8C0 3.58172 3.58172 0 8 0H40C44.4183 0 48 3.58172 48 8V40C48 44.4183 44.4183 48 40 48H8C3.58172 48 0 44.4183 0 40V8Z" fill="#211A4D"/>
<path d="M33.8288 25.0624C33.7209 24.6554 33.6095 24.235 33.6042 23.8271C33.5995 23.4389 33.7003 23.0302 33.7982 22.6348C33.933 22.0823 34.074 21.5109 33.9348 20.9916C33.7955 20.4705 33.3885 20.0473 32.995 19.6377C32.7129 19.343 32.42 19.0393 32.2304 18.7006C32.0301 18.3439 31.916 17.9252 31.8064 17.52C31.6536 16.9549 31.5099 16.4221 31.155 16.0547C30.7902 15.6764 30.2305 15.5048 29.6888 15.3359C29.2952 15.2164 28.8892 15.0925 28.5513 14.8867C28.2117 14.681 27.9117 14.3764 27.6206 14.0817C27.2243 13.681 26.8138 13.265 26.3115 13.1177C26.1624 13.0746 26.0052 13.0539 25.8273 13.0539C25.4625 13.0539 25.0708 13.1473 24.6908 13.2345C24.2981 13.327 23.892 13.4205 23.5012 13.4205L23.477 13.4187C23.0942 13.4151 22.6926 13.3109 22.3045 13.2102C21.9073 13.1069 21.4959 13 21.1068 13C20.9406 13 20.7915 13.0189 20.6477 13.0566C20.1231 13.1959 19.699 13.6145 19.2893 14.0161C19.0036 14.3 18.7089 14.5902 18.3792 14.7861C18.036 14.9891 17.6272 15.1131 17.2328 15.2317C16.6668 15.4033 16.1313 15.5668 15.7719 15.9406C15.4107 16.317 15.2625 16.8839 15.1188 17.4311C15.0163 17.8309 14.9085 18.2451 14.7172 18.5928C14.5276 18.9387 14.2383 19.2522 13.9571 19.5523C13.5725 19.9674 13.1727 20.3959 13.047 20.908C12.9239 21.404 13.0649 21.9368 13.215 22.501C13.3219 22.9071 13.4342 23.3266 13.4387 23.7354C13.4431 24.1236 13.3425 24.5332 13.2455 24.9277C13.1098 25.4811 12.9697 26.0516 13.1089 26.5709C13.2473 27.0902 13.6543 27.5161 14.0478 27.9248C14.3308 28.2186 14.6228 28.5232 14.8115 28.8619C15.0127 29.2186 15.1268 29.6364 15.2364 30.0434C15.3892 30.6076 15.5338 31.1395 15.8869 31.5069C16.2526 31.887 16.8123 32.0577 17.3541 32.2248C17.7476 32.3461 18.1546 32.4709 18.4915 32.6767C18.8311 32.8824 19.1321 33.1861 19.4214 33.4799C19.8185 33.8833 20.23 34.2984 20.7313 34.4448C20.8795 34.487 21.0368 34.5077 21.2147 34.5077C21.5794 34.5077 21.972 34.417 22.3512 34.3298C22.7447 34.2364 23.1508 34.1429 23.5416 34.1429H23.5677C23.9495 34.1485 24.352 34.2516 24.7392 34.3514C25.1354 34.4565 25.5469 34.5625 25.9368 34.5625C26.1031 34.5625 26.2522 34.5445 26.395 34.5068C26.9206 34.3648 27.3438 33.9489 27.7535 33.5446C28.0392 33.2634 28.3357 32.9732 28.6636 32.7773C29.0077 32.5743 29.4165 32.4494 29.81 32.3299C30.376 32.1583 30.9106 31.9966 31.2709 31.6219C31.632 31.2428 31.7803 30.6786 31.9231 30.1305C32.0273 29.7325 32.1352 29.3192 32.3256 28.9697C32.5152 28.6238 32.8063 28.3121 33.0857 28.0102C33.4702 27.596 33.87 27.1675 33.9976 26.6554C34.1198 26.1594 33.9788 25.6266 33.8287 25.0624H33.8288ZM23.5219 33.1448C18.4799 33.1448 14.3938 28.9518 14.3938 23.7804C14.3938 18.6107 18.4799 14.4177 23.5219 14.4177C28.5639 14.4177 32.6501 18.6107 32.6501 23.7804C32.6501 28.9518 28.5639 33.1448 23.5219 33.1448M23.5237 15.38C18.8842 15.38 15.1224 19.1417 15.1224 23.7804C15.1224 28.4208 18.8842 32.1826 23.5237 32.1826C28.1642 32.1826 31.9259 28.4208 31.9259 23.7804C31.9259 19.1418 28.1642 15.38 23.5237 15.38ZM22.3576 18.3637C22.3576 18.1661 22.5157 18.0079 22.7115 18.0079H24.4842C24.6791 18.0079 24.8381 18.167 24.8381 18.3637V19.8686C24.8381 20.0663 24.68 20.2226 24.4842 20.2226H22.7115C22.5157 20.2226 22.3576 20.0663 22.3576 19.8686V18.3637ZM26.1678 28.8152C26.1678 29.012 26.0079 29.1711 25.8129 29.1711H21.3836C21.1878 29.1711 21.0288 29.012 21.0288 28.8153V27.2223C21.0288 27.0246 21.1878 26.8674 21.3836 26.8674H22.3576V23.6761H21.3836C21.1878 23.6761 21.0288 23.518 21.0288 23.3221V21.8173C21.0288 21.6196 21.1878 21.4624 21.3836 21.4624H24.4851C24.68 21.4624 24.839 21.6196 24.839 21.8173V26.8665H25.8138C26.0088 26.8665 26.1687 27.0237 26.1687 27.2214V28.8152L26.1678 28.8152Z" fill="#BA9258"/>
</svg>
