<svg width="24" height="25" viewBox="0 0 24 25" fill="none" xmlns="http://www.w3.org/2000/svg">
<path d="M12.56 21.32C12.3968 21.4372 12.201 21.5003 12 21.5003C11.7991 21.5003 11.6032 21.4372 11.44 21.32C6.61102 17.878 1.48602 10.798 6.66702 5.682C8.08937 4.28285 10.0049 3.49912 12 3.5C14 3.5 15.919 4.285 17.333 5.681C22.514 10.797 17.389 17.876 12.56 21.32Z" stroke="#ECE5DA" stroke-width="1.5" stroke-linecap="round" stroke-linejoin="round"/>
<path d="M12 12.5C12.5304 12.5 13.0391 12.2893 13.4142 11.9142C13.7893 11.5391 14 11.0304 14 10.5C14 9.96957 13.7893 9.46086 13.4142 9.08579C13.0391 8.71071 12.5304 8.5 12 8.5C11.4696 8.5 10.9609 8.71071 10.5858 9.08579C10.2107 9.46086 10 9.96957 10 10.5C10 11.0304 10.2107 11.5391 10.5858 11.9142C10.9609 12.2893 11.4696 12.5 12 12.5Z" stroke="#ECE5DA" stroke-width="1.5" stroke-linecap="round" stroke-linejoin="round"/>
</svg>
