<svg width="48" height="48" viewBox="0 0 48 48" fill="none" xmlns="http://www.w3.org/2000/svg">
<path d="M0 8C0 3.58172 3.58172 0 8 0H40C44.4183 0 48 3.58172 48 8V40C48 44.4183 44.4183 48 40 48H8C3.58172 48 0 44.4183 0 40V8Z" fill="url(#paint0_linear_618_801)"/>
<rect x="23" y="8" width="2" height="12" rx="1" fill="#1D1D1D"/>
<rect x="23" y="28" width="2" height="12" rx="1" fill="#1D1D1D"/>
<rect x="34.6067" y="11.9791" width="2" height="12" rx="1" transform="rotate(45 34.6067 11.9791)" fill="#1D1D1D"/>
<rect x="20.4646" y="26.1212" width="2" height="12" rx="1" transform="rotate(45 20.4646 26.1212)" fill="#1D1D1D"/>
<rect x="28" y="25" width="2" height="12" rx="1" transform="rotate(-90 28 25)" fill="#1D1D1D"/>
<rect x="8" y="25" width="2" height="12" rx="1" transform="rotate(-90 8 25)" fill="#1D1D1D"/>
<rect x="26.1213" y="27.5355" width="2" height="12" rx="1" transform="rotate(-45 26.1213 27.5355)" fill="#1D1D1D"/>
<rect x="11.979" y="13.3933" width="2" height="12" rx="1" transform="rotate(-45 11.979 13.3933)" fill="#1D1D1D"/>
<defs>
<linearGradient id="paint0_linear_618_801" x1="0" y1="0" x2="49.8894" y2="2.05139" gradientUnits="userSpaceOnUse">
<stop stop-color="#BA9258"/>
<stop offset="1" stop-color="#C9BFB1"/>
</linearGradient>
</defs>
</svg>
