<svg width="55" height="56" viewBox="0 0 55 56" fill="none" xmlns="http://www.w3.org/2000/svg">
<g clip-path="url(#clip0_536_397)">
<path d="M47.7634 14.875H43.1109L31.6959 26.285C32.0891 27.287 32.1253 28.3938 31.7983 29.4193C31.4714 30.4448 30.8013 31.3264 29.9008 31.916C29.0003 32.5055 27.9242 32.767 26.8536 32.6565C25.7829 32.546 24.783 32.0702 24.0219 31.3091C23.2608 30.548 22.785 29.548 22.6744 28.4774C22.5639 27.4067 22.8254 26.3306 23.415 25.4301C24.0045 24.5296 24.8862 23.8595 25.9117 23.5326C26.9372 23.2057 28.044 23.2418 29.0459 23.635L40.4584 12.2225V7.56999C40.4587 6.94744 40.7059 6.35041 41.1459 5.90999L45.4709 1.58499C45.551 1.50444 45.6515 1.44721 45.7616 1.41946C45.8717 1.39171 45.9873 1.39449 46.0959 1.42749C46.3184 1.49249 46.4834 1.67749 46.5284 1.90499L47.6784 7.65749L53.4284 8.80749C53.6534 8.85249 53.8384 9.01749 53.9034 9.23999C53.9363 9.34807 53.9392 9.46303 53.9119 9.57264C53.8846 9.68225 53.8281 9.78242 53.7484 9.86249L49.4209 14.1875C48.9811 14.6269 48.3851 14.8741 47.7634 14.875Z" fill="#3B307D"/>
<path d="M3.896 28C3.896 34.216 6.3653 40.1774 10.7607 44.5728C15.1561 48.9682 21.1175 51.4375 27.3335 51.4375C30.4114 51.4375 33.4591 50.8313 36.3026 49.6534C39.1462 48.4756 41.7299 46.7492 43.9063 44.5728C46.0827 42.3965 47.8091 39.8127 48.9869 36.9692C50.1648 34.1256 50.771 31.0779 50.771 28C50.771 25.755 50.456 23.585 49.8685 21.5325C49.7517 21.0612 49.8223 20.563 50.0654 20.1428C50.3085 19.7225 50.7051 19.4129 51.1719 19.2791C51.6386 19.1453 52.139 19.1978 52.5678 19.4255C52.9967 19.6533 53.3204 20.0384 53.471 20.5C54.156 22.885 54.521 25.4 54.521 28C54.521 43.015 42.3485 55.1875 27.3335 55.1875C12.3185 55.1875 0.145996 43.015 0.145996 28C0.145996 12.985 12.3185 0.812513 27.3335 0.812513C29.871 0.810013 32.3935 1.16251 34.8335 1.86001C35.0714 1.92675 35.2938 2.03985 35.4878 2.19281C35.6819 2.34578 35.8438 2.53559 35.9642 2.75133C36.0847 2.96707 36.1613 3.2045 36.1897 3.44995C36.2181 3.69541 36.1976 3.94405 36.1296 4.18159C36.0616 4.41913 35.9473 4.64088 35.7932 4.83409C35.6392 5.0273 35.4485 5.18817 35.2321 5.30743C35.0157 5.4267 34.7779 5.50202 34.5323 5.52907C34.2867 5.55611 34.0382 5.53434 33.801 5.46501C31.6977 4.86466 29.5208 4.56089 27.3335 4.56251C21.1175 4.56251 15.1561 7.03181 10.7607 11.4272C6.3653 15.8226 3.896 21.784 3.896 28Z" fill="#3B307D"/>
<path d="M15.1461 28C15.1531 29.6558 15.4974 31.2928 16.1582 32.8111C16.819 34.3293 17.7822 35.697 18.9892 36.8306C20.1962 37.9641 21.6215 38.8398 23.1782 39.4041C24.7349 39.9684 26.3903 40.2096 28.0433 40.1128C29.6963 40.016 31.3122 39.5833 32.7924 38.8412C34.2726 38.099 35.586 37.063 36.6524 35.7963C37.7188 34.5296 38.5159 33.0588 38.9949 31.4738C39.4739 29.8888 39.6249 28.2228 39.4386 26.5775C39.3861 26.2442 39.4247 25.903 39.5503 25.59C39.676 25.2769 39.884 25.0037 40.1522 24.7992C40.4205 24.5947 40.7391 24.4666 41.0743 24.4285C41.4095 24.3903 41.7487 24.4435 42.0561 24.5825C42.6836 24.8625 43.1061 25.46 43.1611 26.145C43.5493 29.4331 42.9034 32.7604 41.3133 35.6646C39.7232 38.5687 37.2678 40.9053 34.2885 42.3496C31.3092 43.7939 27.9539 44.2741 24.6891 43.7236C21.4242 43.173 18.412 41.6189 16.0711 39.2775C13.7308 36.9385 12.1764 33.9293 11.6234 30.6672C11.0704 27.405 11.5462 24.0516 12.9849 21.0721C14.4236 18.0925 16.7538 15.6345 19.6523 14.0389C22.5508 12.4434 25.8741 11.7893 29.1611 12.1675C29.4096 12.1905 29.651 12.2629 29.8711 12.3805C30.0912 12.4981 30.2857 12.6584 30.443 12.8521C30.6004 13.0457 30.7175 13.2689 30.7876 13.5084C30.8576 13.7479 30.8791 13.999 30.8508 14.247C30.8225 14.4949 30.745 14.7347 30.6228 14.9524C30.5006 15.17 30.3363 15.361 30.1393 15.5142C29.9424 15.6675 29.7168 15.7799 29.4758 15.8448C29.2349 15.9098 28.9834 15.926 28.7361 15.8925C27.0287 15.6951 25.2988 15.861 23.66 16.3793C22.0212 16.8976 20.5106 17.7567 19.2272 18.9C17.9438 20.0434 16.9168 21.4452 16.2134 23.0135C15.5101 24.5818 15.1463 26.2812 15.1461 28Z" fill="#3B307D"/>
</g>
<defs>
<clipPath id="clip0_536_397">
<rect width="55" height="56" fill="white"/>
</clipPath>
</defs>
</svg>
