<svg width="20" height="13" viewBox="0 0 20 13" fill="none" xmlns="http://www.w3.org/2000/svg">
<path fill-rule="evenodd" clip-rule="evenodd" d="M9.99991 0C15.4371 0 19.6942 5.78969 19.8729 6.03621C20.0424 6.26985 20.0424 6.58729 19.8729 6.82113C19.6942 7.06741 15.4371 12.8571 9.99991 12.8571C4.56275 12.8571 0.305392 7.06745 0.126914 6.82093C-0.0423048 6.58706 -0.0423048 6.26985 0.126914 6.03598C0.305392 5.78969 4.56275 0 9.99991 0ZM1.49923 6.42812C2.52607 7.68437 5.99486 11.5271 9.99992 11.5271C14.0136 11.5271 17.4751 7.68634 18.5006 6.42903C17.4733 5.17211 14.0048 1.33005 9.99992 1.33005C5.98627 1.33005 2.52474 5.17077 1.49923 6.42812Z" fill="black"/>
<path fill-rule="evenodd" clip-rule="evenodd" d="M5.71387 6.07139C5.71387 3.90522 7.47626 2.14282 9.64244 2.14282C11.8086 2.14282 13.571 3.90522 13.571 6.07139C13.571 8.23757 11.8086 9.99997 9.64244 9.99997C7.47626 9.99997 5.71387 8.23757 5.71387 6.07139ZM7.02334 6.07139C7.02334 7.51555 8.19816 8.69042 9.64236 8.69042C11.0866 8.69042 12.2614 7.51555 12.2614 6.07139C12.2614 4.62724 11.0865 3.45237 9.64236 3.45237C8.1982 3.45237 7.02334 4.62724 7.02334 6.07139Z" fill="black"/>
</svg>
