<svg width="43" height="44" viewBox="0 0 43 44" fill="none" xmlns="http://www.w3.org/2000/svg">
<path d="M21.666 41.8055L3.36599 18.9305C2.53349 17.8905 2.116 17.3705 2.006 16.7455C1.896 16.1205 2.10599 15.488 2.52599 14.2255L4.38599 8.64304C5.48599 5.34304 6.03599 3.69304 7.34599 2.75054C8.65599 1.80804 10.396 1.80554 13.8735 1.80554H29.4585C32.936 1.80554 34.676 1.80554 35.9835 2.75054C37.296 3.69304 37.846 5.34304 38.946 8.64304L40.806 14.2255C41.226 15.488 41.436 16.118 41.326 16.7455C41.2135 17.3705 40.7985 17.8905 39.966 18.9305L21.666 41.8055ZM21.666 41.8055L30.416 14.3055M21.666 41.8055L12.916 14.3055M30.416 14.3055L40.416 16.8055M30.416 14.3055L26.666 4.30554M30.416 14.3055H12.916M12.916 14.3055L16.666 4.30554M12.916 14.3055L2.91599 16.8055" stroke="#3B307D" stroke-width="2.5" stroke-linecap="round"/>
</svg>
