<svg width="56" height="41" viewBox="0 0 56 41" fill="none" xmlns="http://www.w3.org/2000/svg">
<path fill-rule="evenodd" clip-rule="evenodd" d="M6.025 22.5801C5.6 21.8551 5.275 21.2551 5.05 20.8051C5.275 20.3551 5.6 19.7551 6.025 19.0301C6.95 17.4801 8.375 15.4051 10.275 13.3301C14.125 9.20505 19.925 5.18005 27.975 5.18005C35.375 5.18005 41.175 9.15505 45.225 13.3551C47.225 15.4301 48.75 17.5301 49.775 19.1051C50.25 19.8051 50.625 20.4301 50.875 20.8551C50.65 21.3051 50.325 21.8801 49.925 22.5801C49 24.1301 47.575 26.2051 45.675 28.2801C41.825 32.4051 36.025 36.4301 27.975 36.4301C19.925 36.4301 14.125 32.4051 10.275 28.2801C8.375 26.2051 6.95 24.1301 6.025 22.5801ZM54.7 21.5551C54.925 21.0301 54.9 20.4551 54.65 19.9551V19.9051C54.65 19.9051 54.575 19.8051 54.525 19.7301C54.45 19.5801 54.35 19.3801 54.2 19.1301C53.9 18.6301 53.475 17.9051 52.925 17.0551C51.8 15.3301 50.125 13.0551 47.925 10.7551C43.525 6.20505 36.825 1.43005 27.975 1.43005C18.525 1.43005 11.825 6.15505 7.55 10.7801C5.4 13.0801 3.825 15.3801 2.8 17.1051C2.3 17.9801 1.9 18.7051 1.65 19.2051C1.525 19.4801 1.425 19.6801 1.35 19.8301C1.325 19.9051 1.3 19.9551 1.275 20.0051V20.0551C1.17598 20.2927 1.125 20.5476 1.125 20.8051C1.125 21.0625 1.17598 21.3174 1.275 21.5551V21.6051C1.3 21.6551 1.325 21.7051 1.35 21.7801C1.425 21.9301 1.525 22.1301 1.65 22.4051C1.9 22.9051 2.3 23.6301 2.8 24.5051C3.825 26.2301 5.4 28.5301 7.55 30.8301C11.825 35.4551 18.525 40.1801 27.975 40.1801C37.425 40.1801 44.125 35.4551 48.4 30.8301C50.55 28.5301 52.125 26.2301 53.15 24.5051C53.65 23.6301 54.05 22.9051 54.3 22.4051C54.425 22.1301 54.525 21.9301 54.6 21.7801C54.625 21.7051 54.65 21.6551 54.675 21.6051V21.5551H54.7ZM31.45 13.2051L30.375 11.4801C30.1131 11.0829 29.7567 10.757 29.3379 10.5315C28.919 10.306 28.4507 10.188 27.975 10.188C27.4993 10.188 27.031 10.306 26.6121 10.5315C26.1933 10.757 25.8369 11.0829 25.575 11.4801L24.5 13.2051C23.45 14.8551 22.025 16.2801 20.375 17.3301L18.65 18.4051C18.2529 18.667 17.927 19.0233 17.7015 19.4422C17.476 19.8611 17.3579 20.3293 17.3579 20.8051C17.3579 21.2808 17.476 21.749 17.7015 22.1679C17.927 22.5868 18.2529 22.9431 18.65 23.2051L20.375 24.2801C22.025 25.3301 23.45 26.7551 24.5 28.4051L25.575 30.1301C26.7 31.8551 29.25 31.8551 30.375 30.1301L31.45 28.4051C32.5 26.7551 33.925 25.3301 35.575 24.2801L37.3 23.2051C39.025 22.0801 39.025 19.5301 37.3 18.4051L35.575 17.3301C33.925 16.2801 32.5 14.8551 31.45 13.2051ZM27.65 15.2051L27.975 14.7301L28.3 15.2051C29.65 17.3301 31.45 19.1301 33.575 20.4801L34.05 20.8051L33.575 21.1301C31.45 22.4801 29.65 24.2801 28.3 26.4051L27.975 26.8801L27.65 26.4051C26.3007 24.2804 24.4996 22.4794 22.375 21.1301L21.9 20.8051L22.375 20.4801C24.5 19.1301 26.3 17.3301 27.65 15.2051Z" fill="#3B307D" stroke="#3B307D" stroke-width="1.5" stroke-linecap="round" stroke-linejoin="round"/>
</svg>
