<svg width="30" height="30" viewBox="0 0 30 30" fill="none" xmlns="http://www.w3.org/2000/svg">
<path fill-rule="evenodd" clip-rule="evenodd" d="M20 5.625C20 5.12772 20.1975 4.65081 20.5492 4.29917C20.9008 3.94754 21.3777 3.75 21.875 3.75H24.375C24.8723 3.75 25.3492 3.94754 25.7008 4.29917C26.0525 4.65081 26.25 5.12772 26.25 5.625V24.375C26.25 24.8723 26.0525 25.3492 25.7008 25.7008C25.3492 26.0525 24.8723 26.25 24.375 26.25H21.875C21.3777 26.25 20.9008 26.0525 20.5492 25.7008C20.1975 25.3492 20 24.8723 20 24.375V5.625ZM21.875 5C21.7092 5 21.5503 5.06585 21.4331 5.18306C21.3158 5.30027 21.25 5.45924 21.25 5.625V6.3575L22.6075 5H21.875ZM24.375 5L21.25 8.125V9.4825L25 5.7325V5.625C25 5.45924 24.9342 5.30027 24.8169 5.18306C24.6997 5.06585 24.5408 5 24.375 5ZM25 7.5L21.25 11.25V12.6075L25 8.8575V7.5ZM25 10.625L21.25 14.375V15.7325L25 11.9825V10.625ZM25 13.75L21.25 17.5V18.8575L25 15.1075V13.75ZM25 16.875L21.25 20.625V21.9825L25 18.2325V16.875ZM25 20L21.25 23.75V24.375C21.25 24.575 21.3438 24.7531 21.49 24.8675L25 21.3575V20ZM25 23.125L23.125 25H24.375C24.5408 25 24.6997 24.9342 24.8169 24.8169C24.9342 24.6997 25 24.5408 25 24.375V23.125ZM11.875 13.125C11.875 12.6277 12.0725 12.1508 12.4242 11.7992C12.7758 11.4475 13.2527 11.25 13.75 11.25H16.25C16.7473 11.25 17.2242 11.4475 17.5758 11.7992C17.9275 12.1508 18.125 12.6277 18.125 13.125V24.375C18.125 24.8723 17.9275 25.3492 17.5758 25.7008C17.2242 26.0525 16.7473 26.25 16.25 26.25H13.75C13.2527 26.25 12.7758 26.0525 12.4242 25.7008C12.0725 25.3492 11.875 24.8723 11.875 24.375V13.125ZM15 12.5H16.25C16.2837 12.5 16.3169 12.5027 16.3494 12.5081L13.125 15.7325V14.375L15 12.5ZM13.125 18.8575V17.5L16.875 13.75V15.1075L13.125 18.8575ZM16.875 18.2325V16.875L13.125 20.625V21.9825L16.875 18.2325ZM13.125 24.375V23.75L16.875 20V21.3575L13.365 24.8675C13.2902 24.809 13.2297 24.7343 13.1882 24.6489C13.1466 24.5636 13.125 24.4699 13.125 24.375ZM15 25L16.875 23.125V24.375C16.875 24.5408 16.8092 24.6997 16.6919 24.8169C16.5747 24.9342 16.4158 25 16.25 25H15ZM5.625 18.75C5.12772 18.75 4.65081 18.9475 4.29917 19.2992C3.94754 19.6508 3.75 20.1277 3.75 20.625V24.375C3.75 24.8723 3.94754 25.3492 4.29917 25.7008C4.65081 26.0525 5.12772 26.25 5.625 26.25H8.125C8.62228 26.25 9.09919 26.0525 9.45083 25.7008C9.80246 25.3492 10 24.8723 10 24.375V20.625C10 20.1277 9.80246 19.6508 9.45083 19.2992C9.09919 18.9475 8.62228 18.75 8.125 18.75H5.625ZM5 20.625C5 20.4592 5.06585 20.3003 5.18306 20.1831C5.30027 20.0658 5.45924 20 5.625 20H6.9825L5 21.9825V20.625ZM5 23.75L8.56687 20.1831C8.68409 20.3003 8.74996 20.4593 8.75 20.625V21.3575L5.24 24.8675C5.16522 24.809 5.10474 24.7343 5.06316 24.6489C5.02158 24.5636 4.99998 24.4699 5 24.375V23.75ZM6.875 25H8.125C8.29076 25 8.44973 24.9342 8.56694 24.8169C8.68415 24.6997 8.75 24.5408 8.75 24.375V23.125L6.875 25Z" fill="#C9AE88"/>
</svg>
