<svg width="70" height="70" viewBox="0 0 70 70" fill="none" xmlns="http://www.w3.org/2000/svg">
<path d="M56.0874 44.5083L48.679 43.6625C47.8079 43.5602 46.925 43.6566 46.0965 43.9446C45.268 44.2325 44.5156 44.7045 43.8957 45.325L38.529 50.6917C30.2498 46.4798 23.5201 39.7501 19.3082 31.4708L24.704 26.075C25.9582 24.8208 26.5707 23.0708 26.3665 21.2917L25.5207 13.9417C25.356 12.5186 24.6733 11.2059 23.6029 10.2538C22.5325 9.30174 21.1491 8.77684 19.7165 8.77918H14.6707C11.3749 8.77918 8.63321 11.5208 8.83737 14.8167C10.3832 39.725 30.304 59.6167 55.1832 61.1625C58.479 61.3667 61.2207 58.625 61.2207 55.3292V50.2833C61.2499 47.3375 59.0332 44.8583 56.0874 44.5083Z" fill="#226DC7"/>
</svg>
