<svg width="70" height="70" viewBox="0 0 70 70" fill="none" xmlns="http://www.w3.org/2000/svg">
<g clip-path="url(#clip0_746_290)">
<path d="M1.48356 34.5811C1.48193 40.4624 3.01868 46.2051 5.94077 51.2668L1.2041 68.5612L18.9027 63.9206C23.7979 66.5854 29.2826 67.9818 34.8562 67.9822H34.8708C53.2703 67.9822 68.2478 53.0101 68.2557 34.6074C68.2592 25.69 64.7896 17.3046 58.4858 10.9959C52.1831 4.68781 43.8007 1.21196 34.8695 1.20789C16.4679 1.20789 1.49143 16.1792 1.48383 34.5811" fill="url(#paint0_linear_746_290)"/>
<path d="M0.291775 34.5702C0.289876 40.6632 1.8817 46.6113 4.90798 51.8543L0.00146484 69.7686L18.3347 64.9616C23.3861 67.7158 29.0734 69.1679 34.8607 69.17H34.8756C53.9351 69.17 69.4507 53.6593 69.4588 34.5979C69.4621 25.3601 65.8677 16.6733 59.3387 10.1386C52.8089 3.60473 44.1267 0.00379845 34.8756 0C15.8128 0 0.299372 15.5085 0.291775 34.5702ZM11.2099 50.9513L10.5253 49.8647C7.64774 45.2892 6.12891 40.0017 6.13108 34.5724C6.13705 18.7288 19.0312 5.83876 34.8864 5.83876C42.5647 5.84202 49.7807 8.83519 55.2081 14.2659C60.6353 19.6971 63.6217 26.9169 63.6198 34.5957C63.6127 50.4393 50.7184 63.331 34.8756 63.331H34.8642C29.7056 63.3283 24.6463 61.9429 20.2342 59.325L19.1842 58.7023L8.30488 61.5547L11.2099 50.9513Z" fill="url(#paint1_linear_746_290)"/>
<path d="M26.2318 20.1177C25.5844 18.6789 24.9032 18.6498 24.2875 18.6246C23.7834 18.6029 23.2072 18.6045 22.6314 18.6045C22.0551 18.6045 21.1188 18.8213 20.3274 19.6855C19.5351 20.5504 17.3027 22.6406 17.3027 26.8919C17.3027 31.1432 20.3993 35.252 20.831 35.8291C21.2632 36.4051 26.8089 45.4086 35.592 48.8722C42.8915 51.7506 44.377 51.1781 45.9612 51.0338C47.5457 50.89 51.0739 48.9441 51.7937 46.9263C52.5141 44.9088 52.5141 43.1794 52.2981 42.818C52.0822 42.458 51.5059 42.2417 50.6417 41.8098C49.7776 41.3779 45.529 39.2871 44.737 38.9987C43.9448 38.7105 43.3688 38.5667 42.7925 39.432C42.2162 40.2958 40.5615 42.2417 40.0571 42.818C39.5532 43.3956 39.0489 43.4675 38.185 43.0353C37.3203 42.6018 34.5374 41.6904 31.2357 38.7469C28.6669 36.4564 26.9326 33.6279 26.4285 32.7627C25.9244 31.8988 26.3745 31.4305 26.8078 30.9999C27.1961 30.6128 27.6722 29.9909 28.1047 29.4865C28.5356 28.9819 28.6794 28.6218 28.9675 28.0456C29.2559 27.4687 29.1116 26.9641 28.8959 26.5319C28.6794 26.0997 27.0002 21.8261 26.2318 20.1177Z" fill="white"/>
</g>
<defs>
<linearGradient id="paint0_linear_746_290" x1="3353.78" y1="6736.54" x2="3353.78" y2="1.20789" gradientUnits="userSpaceOnUse">
<stop stop-color="#1FAF38"/>
<stop offset="1" stop-color="#60D669"/>
</linearGradient>
<linearGradient id="paint1_linear_746_290" x1="3472.87" y1="6976.86" x2="3472.87" y2="0" gradientUnits="userSpaceOnUse">
<stop stop-color="#F9F9F9"/>
<stop offset="1" stop-color="white"/>
</linearGradient>
<clipPath id="clip0_746_290">
<rect width="69.46" height="70" fill="white"/>
</clipPath>
</defs>
</svg>
