<svg width="24" height="25" viewBox="0 0 24 25" fill="none" xmlns="http://www.w3.org/2000/svg">
<path d="M17.5 5.342C15.976 4.837 14.146 4.5 12 4.5C9.854 4.5 8.024 4.837 6.5 5.342M17.5 5.342C20.521 6.342 22.335 8.002 23 9L20.5 11.5L17.5 9.5V5.342ZM6.5 5.342C3.479 6.342 1.665 8.002 1 9L3.5 11.5L6.5 9.5V5.342ZM10 7.5V10.5M10 10.5L4.586 15.914C4.2109 16.289 4.00011 16.7976 4 17.328V18.5C4 19.0304 4.21071 19.5391 4.58579 19.9142C4.96086 20.2893 5.46957 20.5 6 20.5H18C18.5304 20.5 19.0391 20.2893 19.4142 19.9142C19.7893 19.5391 20 19.0304 20 18.5V17.328C19.9999 16.7976 19.7891 16.289 19.414 15.914L14 10.5M10 10.5H14M14 10.5V7.5" stroke="#ECE5DA" stroke-width="2" stroke-linecap="round" stroke-linejoin="round"/>
<path d="M12 17.5C13.1046 17.5 14 16.6046 14 15.5C14 14.3954 13.1046 13.5 12 13.5C10.8954 13.5 10 14.3954 10 15.5C10 16.6046 10.8954 17.5 12 17.5Z" stroke="#ECE5DA" stroke-width="2" stroke-linecap="round" stroke-linejoin="round"/>
</svg>
